<svg version="1" xmlns="http://www.w3.org/2000/svg" width="682.667" height="682.667" viewBox="0 0 512.000000 512.000000"><path d="M189.6 117.6c-22.5 4.1-43.5 14.6-59.6 30-14.3 13.7-23.1 27.5-29.6 46.9-3.2 9.4-3.8 12.3-3.8 20l-.1 9 42.4 68c23.3 37.4 45.3 72.9 48.9 79 3.6 6 8.8 14.3 11.5 18.2l4.9 7.3 14.7-.1c8-.1 18.4-.4 23-.7l8.4-.7 2.4-7c1.3-3.9 4.4-14.7 6.9-24 5.6-21.1 45.5-158.9 48.2-166.6 5.4-15.4 4.8-21-3.4-32.6-10.2-14.5-26.7-28.5-42.9-36.5-20.9-10.4-48.8-14.4-71.9-10.2zM332.7 193.6c-18.1 57-58.6 199.8-57.1 201.3.3.3 16.5.8 36 1l35.4.3 3.6-3.8c5-5.3 78.2-118.5 81.1-125.4 3-7.4 3-15.9-.1-27.5-8.4-30.9-28.2-51.6-58.2-60.6-5-1.5-10.8-2.3-20.9-2.6l-14.1-.5-5.7 17.8zM65.4 233.5c-17.4 8.7-36.5 34.2-42 56-2.6 10.3-2.4 28.4.5 40 7.8 31.8 33.9 57.5 65.3 64.1 8.6 1.8 81.4 3.3 84.2 1.7 1.5-.8 1.3-1.5-1.4-6.6-1.6-3.1-9.2-15.4-16.8-27.4-7.6-12-29.1-46.2-47.7-76.1C85.3 249.6 73.1 231 72 231c-.9 0-3.8 1.1-6.6 2.5zM448.5 287.2c-5.5 6.5-67.2 101.3-69 106-1.7 4.5 58.4 3.4 72.5-1.3 28-9.2 43.2-37.9 36.5-69.2-3.1-14.9-13.2-29-24.8-34.7-9.7-4.7-11.8-4.8-15.2-.8z"/></svg>